<?xml version="1.0" encoding="utf-8"?>
<!-- Generator: Adobe Illustrator 16.0.0, SVG Export Plug-In . SVG Version: 6.00 Build 0)  -->
<svg version="1.2" baseProfile="tiny" id="Layer_1" xmlns="http://www.w3.org/2000/svg" xmlns:xlink="http://www.w3.org/1999/xlink"
	 x="0px" y="0px" width="210px" height="210px" viewBox="0 0 210 210" xml:space="preserve">
<g>
	<circle cx="105" cy="105" r="100.283"/>
	<path fill="#FFFFFF" d="M181.226,69.942c-0.253-0.094-0.429,0.04-0.534,0.181c0,0-0.593,1.639-0.766,1.859
		c-2.667,3.512-7.771,5.863-10.986,5.863h-20.31h-43.089H62.348h-20.31c-3.216,0-8.32-2.351-10.986-5.863
		c-0.171-0.22-0.763-1.522-0.763-1.522c-0.108-0.139-0.283-0.444-0.537-0.349c-0.229,0.084-0.294,0.292-0.298,0.597
		c0,0,0.086,1.519,0.127,1.869c0.744,6.542,3.383,14.269,12.457,14.269h25.256l38.247,68.518l38.143-68.518h25.256
		c9.074,0,11.713-7.77,12.457-14.312c0.041-0.349,0.127-1.621,0.127-1.621C181.52,70.608,181.455,70.028,181.226,69.942z
		 M105.541,137.131L77.439,86.846h28.102h27.998L105.541,137.131z"/>
</g>
</svg>
